<?xml version="1.0" encoding="UTF-8"?>
<svg width="20px" height="15px" viewBox="0 0 20 15" version="1.1" xmlns="http://www.w3.org/2000/svg" xmlns:xlink="http://www.w3.org/1999/xlink">
    <!-- Generator: Sketch 58 (84663) - https://sketch.com -->
    <title>javascript</title>
    <desc>Created with Sketch.</desc>
    <g id="Page-1" stroke="none" stroke-width="1" fill="none" fill-rule="evenodd" opacity="0.5">
        <g id="Desktop-HD" transform="translate(-957.000000, -677.000000)" fill="#FFFFFF" fill-rule="nonzero">
            <g id="javascript" transform="translate(957.000000, 677.000000)">
                <path d="M14.7283465,14.9227676 C12.3503937,14.6753449 10.6614173,13.4536954 10.1732283,11.6212212 C10.0826772,11.284881 10.0708661,11.1573037 10.0669291,10.6353965 C10.0669291,10.1134893 10.0787402,9.98977791 10.1692913,9.66116967 C10.3464567,8.99622121 10.6732283,8.45885008 11.2204724,7.92534492 C11.8700787,7.29519028 12.8110236,6.76941709 14.2322835,6.24750987 C15.7913386,5.67534492 16.3976378,5.23462327 16.5354331,4.57740678 C16.7047244,3.79261296 16.1929134,3.10060266 15.2519685,2.84544802 C14.9330709,2.75653049 13.9370079,2.72560266 13.4370079,2.78359235 C12.6062992,2.88797379 11.6496063,3.14699441 10.9488189,3.4678707 C10.7440945,3.5606542 10.5708661,3.63024183 10.5590551,3.61864389 C10.5354331,3.599314 9.88188976,1.01297379 9.88188976,0.94725214 C9.88188976,0.889262449 10.4015748,0.657303686 10.8858268,0.50653049 C13.1259843,-0.193211778 15.7322835,-0.131356107 17.4330709,0.661169666 C18.9488189,1.36864389 19.8070866,2.52843771 19.9645669,4.0864274 C20,4.41890162 20,4.63539647 19.9645669,4.9678707 C19.8622047,5.96529338 19.5275591,6.66116967 18.8228346,7.349314 C18.2047244,7.95240678 17.507874,8.34673668 15.992126,8.9420975 C14.4133858,9.5606542 13.8425197,9.90086039 13.5905512,10.3802418 C13.4409449,10.6701903 13.4409449,11.0722521 13.5944882,11.3776645 C13.7795276,11.7449326 14.1692913,12.0194171 14.7322835,12.1740563 C15.0826772,12.2668398 16.2874016,12.2668398 16.7913386,12.1701903 C17.2992126,12.0735408 17.7952756,11.9266336 18.2401575,11.7487985 C18.4527559,11.663747 18.6377953,11.6057573 18.6535433,11.6173552 C18.6929134,11.659881 19.4055118,14.2036954 19.3858268,14.2346233 C19.3543307,14.288747 18.5708661,14.5670975 18.1692913,14.667613 C17.1456693,14.9266336 15.7795276,15.027149 14.7283465,14.9227676 Z" id="Path" transform="translate(14.936516, 7.492379) scale(1, -1) translate(-14.936516, -7.492379) "></path>
                <path d="M4.35826772,9.80621389 C4.34251969,4.42863657 4.3503937,4.6103376 4.11417323,3.98791492 C3.90551181,3.43894585 3.51181102,3.05234791 3,2.88997678 C2.48818898,2.72760564 1.46062992,2.75080152 0.736220472,2.94023451 C0.566929134,2.98276028 0.417322835,3.00982214 0.405511811,2.99435822 C0.38976378,2.9788943 0.303149606,2.43379121 0.212598425,1.78044069 C0.122047244,1.12709018 0.0354330709,0.539461313 0.0275590551,0.469873684 L0.00787401575,0.350028324 L0.318897638,0.264976777 C1.54724409,-0.0597654909 3.36614173,-0.0674974496 4.48031496,0.24951286 C5.29133858,0.481471623 5.77952756,0.752090179 6.30314961,1.26626544 C6.91338583,1.86935822 7.27952756,2.55363657 7.49606299,3.51239946 C7.69291339,4.39770874 7.68897638,4.2739974 7.70472441,9.65157472 L7.72047244,14.7237397 L6.04724409,14.7237397 L4.37401575,14.7237397 L4.35826772,9.80621389 Z" id="Path" transform="translate(3.864173, 7.370124) scale(1, -1) translate(-3.864173, -7.370124) "></path>
            </g>
        </g>
    </g>
</svg>