<?xml version="1.0" encoding="UTF-8"?>
<svg width="300px" height="300px" viewBox="0 0 300 300" version="1.1" xmlns="http://www.w3.org/2000/svg" xmlns:xlink="http://www.w3.org/1999/xlink">
    <!-- Generator: Sketch 58 (84663) - https://sketch.com -->
    <title>logo</title>
    <desc>Created with Sketch.</desc>
    <g id="resources" stroke="none" stroke-width="1" fill="none" fill-rule="evenodd">
        <g id="Desktop" transform="translate(-314.000000, -336.000000)">
            <g id="logo" transform="translate(314.000000, 336.000000)">
                <rect id="Rectangle" fill="#FFFFFF" x="0" y="0" width="300" height="300"></rect>
                <g id="Group" transform="translate(150.000000, 150.000000) scale(-1, 1) rotate(-180.000000) translate(-150.000000, -150.000000) " fill="#000000" fill-rule="nonzero">
                    <path d="M0,150 L0,0 L150,0 L300,0 L300,150 L300,300 L150,300 L0,300 L0,150 Z M82,189.6 L82,166.1 L84.9,167.1 C86.9,167.8 92.6,174.4 105,190.6 L122.2,213 L135.7,213 C143.1,213 149,212.6 148.8,212.2 C148.7,211.7 140.6,201.6 131,189.7 C117.9,173.6 112.3,167.5 108.8,165.4 L104,162.6 L108.9,159.5 C112.6,157.3 119.2,150 134.6,131.5 L155.2,106.5 L141,106.2 C130.9,106 126.3,106.3 125.3,107.2 C124.5,107.8 116,118 106.4,129.7 C89.8,150 88.8,151 85.5,151 L82,151 L82,128.5 L82,106 L70,106 L58,106 L58,159.5 L58,213 L70,213 L82,213 L82,189.6 Z M241,203 L241,193 L216.5,193 L192,193 L192,181.5 L192,170 L214.5,170 L237.1,170 L236.8,160.3 L236.5,150.5 L214.3,150.2 L192,150 L192,138 L192,126 L217,126 L242,126 L242,116 L242,106 L205,106 L168,106 L168,159.5 L168,213 L204.5,213 L241,213 L241,203 Z" id="Shape"></path>
                </g>
            </g>
        </g>
    </g>
</svg>